<?xml version="1.0" encoding="utf-8"?>
<!-- Generator: Adobe Illustrator 19.1.0, SVG Export Plug-In . SVG Version: 6.00 Build 0)  -->
<svg version="1.1" id="Layer_1" xmlns="http://www.w3.org/2000/svg" xmlns:xlink="http://www.w3.org/1999/xlink" x="0px" y="0px"
	 viewBox="0 0 31.987 31.722" enable-background="new 0 0 31.987 31.722" xml:space="preserve">
<g>
	<g>
		<path fill="#FFFFFF" d="M15.994,0C7.161,0,0,7.101,0,15.861c0,3.542,1.185,6.802,3.164,9.442l0.118-0.112l6.228-6.172l2.577-2.557
			l0.544-0.54l-3.986-3.955C7.666,10.994,7.667,9.415,8.65,8.44c0.982-0.975,2.574-0.976,3.554-0.003L23.726,19.87
			c0.981,0.973,0.979,2.552-0.003,3.527c-0.982,0.975-2.573,0.976-3.554,0.003l-3.986-3.955l-0.545,0.54l-2.577,2.557l-6.058,6.435
			c2.562,1.731,5.656,2.745,8.99,2.745c8.833,0,15.994-7.101,15.994-15.861C31.987,7.101,24.827,0,15.994,0z M25.328,16.921
			c-0.661,0.656-1.733,0.657-2.394,0.002l-7.76-7.7c-0.66-0.655-0.659-1.719,0.002-2.375c0.661-0.656,1.733-0.657,2.394-0.002
			l2.406,2.388c0.829-0.499,1.92-0.4,2.635,0.31c0.715,0.71,0.815,1.792,0.312,2.615l2.406,2.388
			C25.99,15.201,25.989,16.264,25.328,16.921z"/>
	</g>
</g>
<g>
</g>
<g>
</g>
<g>
</g>
<g>
</g>
<g>
</g>
<g>
</g>
<g>
</g>
<g>
</g>
<g>
</g>
<g>
</g>
<g>
</g>
<g>
</g>
<g>
</g>
<g>
</g>
<g>
</g>
</svg>
