<?xml version="1.0" standalone="no"?>
<!DOCTYPE svg PUBLIC "-//W3C//DTD SVG 20010904//EN"
 "http://www.w3.org/TR/2001/REC-SVG-20010904/DTD/svg10.dtd">
<svg version="1.0" xmlns="http://www.w3.org/2000/svg"
 width="260.000000pt" height="260.000000pt" viewBox="0 0 260.000000 260.000000"
 preserveAspectRatio="xMidYMid meet">
<metadata>
Created by potrace 1.11, written by Peter Selinger 2001-2013
</metadata>
<g transform="translate(0.000000,260.000000) scale(0.100000,-0.100000)"
fill="#000000" stroke="none">
<path d="M1110 2256 c-367 -77 -654 -347 -752 -707 -20 -72 -23 -108 -23 -249
0 -141 3 -177 23 -249 28 -104 76 -208 132 -291 l42 -63 291 292 291 291 -125
127 c-70 71 -134 142 -143 160 -57 113 48 245 176 218 26 -6 110 -84 410 -383
208 -207 384 -390 393 -408 46 -97 -29 -214 -137 -214 -20 0 -49 5 -64 10 -14
6 -87 70 -161 142 l-134 132 -284 -284 c-157 -157 -285 -288 -285 -292 0 -14
210 -109 290 -130 72 -20 110 -23 250 -23 141 0 177 3 249 23 338 92 601 355
693 693 20 72 23 108 23 249 0 141 -3 177 -23 249 -92 336 -355 600 -687 691
-102 28 -345 37 -445 16z m306 -415 c21 -16 63 -54 93 -84 l54 -55 51 5 c107
11 169 -64 142 -173 -7 -30 -3 -35 53 -84 71 -62 111 -117 111 -153 0 -82 -77
-130 -148 -93 -33 18 -505 492 -522 525 -18 35 -4 86 31 115 41 35 85 34 135
-3z"/>
</g>
</svg>
